<svg id="圖層_1" data-name="圖層 1" xmlns="http://www.w3.org/2000/svg" viewBox="0 0 461.12 439.39"><defs><style>.cls-1{fill:#231815;}</style></defs><path class="cls-1" d="M431.09,117.82a213.27,213.27,0,0,0-187.58-50A206.47,206.47,0,0,1,303,46.23a13.59,13.59,0,0,0,.29,1.44A3.53,3.53,0,0,0,303,54.4a3.51,3.51,0,0,0,3.72-.88,4.17,4.17,0,0,0,3,4.1,4.24,4.24,0,0,0,4.72-1,3.52,3.52,0,1,0,6.17-3.31,13.24,13.24,0,0,0,4.11-5.84,13.6,13.6,0,0,0,.78-4.39,208.06,208.06,0,0,1,55.36,2.8A19.58,19.58,0,0,0,376,60.37a20,20,0,0,0,4.14,11,5.35,5.35,0,1,0,8.31,6.09c.74,2.42,3.5,4.1,6.67,3.89a6.48,6.48,0,0,0,6-4.23,5.34,5.34,0,1,0,6.6-8.33,20,20,0,0,0,2.21-10.62,20.49,20.49,0,0,0-1-5A204.59,204.59,0,0,1,433,63q3.67,2.48,7.22,5.11c12,58.85,45.7,108.06,91.56,134.45q-.51-2.67-1.09-5.32a220.14,220.14,0,0,0-413.12-49c-.22.29-.43.6-.65.9A212.37,212.37,0,0,0,75.51,258.43a210.19,210.19,0,0,1,37.86-101.34A218.25,218.25,0,0,0,100.05,200,220.43,220.43,0,0,0,154.9,393.67c.52.55,1,1.12,1.56,1.67a220.08,220.08,0,0,0,318.72,0c0-1.37,0-2.73,0-4.1,0-3.64-.1-7.24-.28-10.83C522.37,295.29,506.62,185.73,431.09,117.82ZM416.92,53.14c-3.15-1.25-6.34-2.45-9.56-3.56A20.23,20.23,0,0,0,406,47.47C409.68,49.25,413.33,51.15,416.92,53.14ZM313.38,26.39a212.94,212.94,0,0,1,77,14.32,15.64,15.64,0,0,0-6.22,2.37,216.86,216.86,0,0,0-59.59-4.95,10.67,10.67,0,0,0-6.23-6.06c-5.82-2.08-12.4,1.44-14.7,7.86l-.11.38a218.29,218.29,0,0,0-91.79,36.88,212.76,212.76,0,0,0-82.28,56.64c-1.43,1.6-2.8,3.22-4.18,4.85A213.52,213.52,0,0,1,313.38,26.39ZM99.81,240a212.67,212.67,0,0,1,21.31-93.09c2.43-3,4.93-6,7.56-9A210.71,210.71,0,0,1,199.87,86.1,226.74,226.74,0,0,0,140.1,364.74,212.5,212.5,0,0,1,99.81,240Zm150.53,59.09c1.71-13.15,7.76-23.2,13.51-22.46s9,12,7.32,25.16-7.75,23.21-13.5,22.46S248.63,312.2,250.34,299.05Zm116.6-22.32c5.72-1,12.14,8.85,14.35,21.93s-.65,24.45-6.37,25.42-12.15-8.86-14.35-21.93S361.22,277.69,366.94,276.73Zm107.62,98.08c-.19-2.41-.41-4.81-.68-7.2-.68-6.15-1.59-12.22-2.78-18.17-11.3-56.36-45-102.81-89.64-126.16.37-4.5.57-9.14.57-13.89,0-39.78-13.66-72-30.51-72-16.52,0-30,31-30.49,69.73-1.73-.06-3.47-.13-5.21-.13s-3.49.07-5.22.13c-.52-38.71-14-69.73-30.49-69.73-16.85,0-30.51,32.25-30.51,72,0,4.75.2,9.39.57,13.89-43.71,22.86-76.9,67.86-88.88,122.63-.26,1.17-.52,2.35-.76,3.53l-.06-.08c-.63,2.81-1.22,5.65-1.75,8.51A215.17,215.17,0,0,1,231.39,75q5.19-1.36,10.42-2.48c-5.86,5-8.63,13.69-6.39,22.34a23.3,23.3,0,0,0,7.17,11.75,6.26,6.26,0,1,0,10.88,5.18c1.39,2.61,4.93,3.94,8.52,3,3.36-.87,5.69-3.44,5.95-6.18a6.24,6.24,0,1,0,5.77-11,23.49,23.49,0,0,0,.2-12.69,22.56,22.56,0,0,0-13.3-15.52,210.93,210.93,0,0,1,166.66,52.69C499.92,187.4,516.73,291.64,474.56,374.81Z" transform="translate(-75.51 -24.24)"/><path class="cls-1" d="M531,216.81c-.7-2-1.45-4-2.21-6a220.16,220.16,0,0,1-15,152.48,2.61,2.61,0,0,0,.24.23A220.05,220.05,0,0,0,531,216.81Z" transform="translate(-75.51 -24.24)"/><path class="cls-1" d="M186.87,121.83c-7.12-.29-13.14,5.86-13.45,13.72a15.09,15.09,0,0,0,2.26,8.64,4.06,4.06,0,1,0,5.79,5.25,4.81,4.81,0,0,0,4.73,3.47,4.9,4.9,0,0,0,4.85-2.73,4.05,4.05,0,1,0,5.65-5.77,15.18,15.18,0,0,0,2.5-7.84C199.51,128.71,194,122.11,186.87,121.83Z" transform="translate(-75.51 -24.24)"/></svg>